# xmcd
#
# Track frame offsets:
#	150
#	22510
#	41215
#	60734
#	79157
#	98757
#	119917
#	136813
#	153374
#	170228
#	183528
#	201285
#	220914
#	241512
#	260232
#	279383
#	293073
#
# Disc length: 4233 seconds
#
# Revision: 0
# Processed by: cddbd v1.5.2PL0 Copyright (c) Steve Scherf et al.
# Submitted via: EasyCDDAExtractor 15.3.0.1
#
DISCID=fa108711
DTITLE=Yuri - Primera Fila
DYEAR=2017
DGENRE=Latin
TTITLE0=El Espejo
TTITLE1=Dejala
TTITLE2=Esperanzas (Featuring Mijares)
TTITLE3=Es Ella Mas Que Yo
TTITLE4=Ya No Vives En Mi (Featuring Carlos Rivera)
TTITLE5=Yo Te Pido Amor (Featuring Pandora)
TTITLE6=Amiga Mia
TTITLE7=Perdon
TTITLE8=Cuando Baja La Marea
TTITLE9=Como Le Hacemos (Featuring Matisse)
TTITLE10=Maldita Primavera
TTITLE11=Y Tu Como Estas
TTITLE12=Detras De Mi Ventana
TTITLE13=La Vida Es Una Sola
TTITLE14=No Tengo Dinero (Featuring Carlos Vives)
TTITLE15=Tan Cerquita
TTITLE16=Medley (Que Te Pasa, El Apagon, Hombres Al Borde De Un Ataque De Celo
TTITLE16=s)
EXTD=
EXTT0=
EXTT1=
EXTT2=
EXTT3=
EXTT4=
EXTT5=
EXTT6=
EXTT7=
EXTT8=
EXTT9=
EXTT10=
EXTT11=
EXTT12=
EXTT13=
EXTT14=
EXTT15=
EXTT16=
PLAYORDER=
